<svg width="112" height="208" viewBox="0 0 112 208" fill="none" xmlns="http://www.w3.org/2000/svg">
<path fill-rule="evenodd" clip-rule="evenodd" d="M91.9518 7.6506C98.6059 7.6506 104 13.0447 104 19.6988C104 24.4454 103.065 29.1455 101.249 33.5308C99.4323 37.916 96.7699 41.9005 93.4135 45.2569C93.0442 45.6262 92.6673 45.9871 92.2831 46.3394C92.0219 46.5789 91.7573 46.8144 91.4896 47.0459C91.4043 47.1196 91.3187 47.1929 91.2328 47.2657C99.1584 55.8544 104 67.3316 104 79.9398C104 94.3338 97.6895 107.254 87.6841 116.085C93.1729 120.925 97.5093 126.973 100.331 133.786C103.979 142.592 104.934 152.282 103.074 161.631C101.214 170.979 96.6245 179.566 89.8847 186.306C83.1447 193.046 74.5577 197.636 65.2092 199.496C55.8607 201.355 46.1707 200.401 37.3647 196.753C28.5586 193.106 21.0319 186.929 15.7364 179.003C10.4409 171.078 7.6145 161.761 7.6145 152.229C7.6145 150.647 7.92611 149.08 8.53168 147.618C9.13707 146.156 10.0245 144.828 11.1433 143.71C12.2622 142.591 13.5902 141.703 15.052 141.098C16.5139 140.492 18.0806 140.181 19.6627 140.181C21.2448 140.181 22.8115 140.492 24.2734 141.098C25.7351 141.703 27.0632 142.591 28.1821 143.71C29.3009 144.828 30.1883 146.156 30.7937 147.618C31.3993 149.08 31.7109 150.647 31.7109 152.229C31.7109 156.995 33.1241 161.654 35.7719 165.616C38.4196 169.579 42.183 172.667 46.586 174.491C50.989 176.315 55.8339 176.792 60.5082 175.862C65.1824 174.933 69.476 172.638 72.846 169.268C76.216 165.898 78.5109 161.604 79.4407 156.93C80.3704 152.256 79.8931 147.411 78.0694 143.008C76.2456 138.605 73.157 134.841 69.1945 132.193C65.2318 129.546 60.5731 128.133 55.8073 128.133C29.1912 128.133 7.6145 106.556 7.6145 79.9398C7.6145 53.3237 29.1912 31.747 55.8073 31.747H67.8554C69.4376 31.747 71.0043 31.4354 72.4662 30.8298C73.9279 30.2244 75.2559 29.337 76.3748 28.2182C77.4937 27.0993 78.3811 25.7712 78.9864 24.3095C79.592 22.8476 79.9036 21.2809 79.9036 19.6988C79.9036 13.0447 85.2977 7.6506 91.9518 7.6506ZM55.8073 55.8434C42.4992 55.8434 31.7109 66.6317 31.7109 79.9398C31.7109 93.2478 42.4992 104.036 55.8073 104.036C69.1153 104.036 79.9036 93.2478 79.9036 79.9398C79.9036 66.6317 69.1153 55.8434 55.8073 55.8434Z" stroke="black" stroke-width="15"/>
<path d="M55.8072 104.036C62.136 104.036 68.4028 105.283 74.2498 107.705C80.0968 110.126 85.4095 113.676 89.8847 118.151C94.3598 122.627 97.9096 127.939 100.332 133.786C102.753 139.633 104 145.9 104 152.229" stroke="black" stroke-width="15"/>
</svg>
