<svg width="297" height="448" viewBox="0 0 297 448" fill="none" xmlns="http://www.w3.org/2000/svg">
<path d="M123.802 448C92.539 448 67.7368 445.088 49.3958 439.265C31.4716 433.441 18.7579 425.538 11.2547 415.554C3.75158 405.571 0 394.34 0 381.861C0 368.966 4.16842 358.15 12.5053 349.415C21.2589 341.096 32.0968 334.232 45.0189 328.824C58.3579 323.833 72.1137 319.257 86.2863 315.097L88.7874 317.593C81.7011 323.001 75.4484 328.408 70.0295 333.816C65.0274 339.224 61.0674 345.047 58.1495 351.287C55.2316 357.526 53.7726 365.43 53.7726 374.997C53.7726 385.812 56.2737 395.588 61.2758 404.323C66.6947 413.058 74.8232 419.922 85.6611 424.914C96.4989 429.905 110.463 432.401 127.554 432.401C148.813 432.401 166.737 429.281 181.326 423.042C195.916 416.802 206.754 408.691 213.84 398.708C221.343 388.724 225.095 377.701 225.095 365.638C225.095 351.079 220.093 340.472 210.088 333.816C200.501 327.161 186.12 323.833 166.945 323.833H103.168C99.4168 323.833 95.2484 323.625 90.6632 323.209C86.4947 323.209 82.3263 322.793 78.1579 321.961L76.2821 321.337C59.6084 319.257 44.8105 313.226 31.8884 303.242C18.9663 293.259 12.5053 278.908 12.5053 260.189C12.5053 241.471 18.5495 225.248 30.6379 211.521C42.7263 197.794 57.1074 185.315 73.781 174.084V167.844L83.7853 181.571C77.9495 185.315 72.7389 190.514 68.1537 197.17C63.5684 203.409 61.2758 211.105 61.2758 220.256C61.2758 229.824 65.0274 236.895 72.5305 241.471C80.0337 246.046 91.2884 248.334 106.295 248.334H184.453C207.379 248.334 226.345 251.662 241.352 258.318C256.775 264.973 268.238 274.332 275.741 286.396C283.661 298.459 287.621 313.434 287.621 331.32C287.621 345.879 284.286 360.022 277.617 373.749C270.947 387.892 260.735 400.371 246.979 411.187C233.64 422.418 216.549 431.361 195.707 438.017C175.282 444.672 151.314 448 123.802 448ZM133.181 198.418C108.171 198.418 86.9116 194.258 69.4042 185.939C52.3137 177.203 39.3916 165.348 30.6379 150.373C21.8842 134.982 17.5074 117.512 17.5074 97.961C17.5074 78.4104 22.0926 61.3556 31.2632 46.7966C40.8505 31.8217 54.3979 20.3825 71.9053 12.4791C89.4126 4.15969 109.838 0 133.181 0C149.438 0 163.819 1.66388 176.324 4.99165C189.246 8.31941 200.293 13.311 209.463 19.9665C219.051 26.2061 226.762 33.6936 232.598 42.4289L234.474 45.5487C239.476 53.0362 243.227 61.3556 245.728 70.5069C248.229 79.2423 249.48 89.0176 249.48 99.8328C249.48 119.383 244.686 136.646 235.099 151.621C225.512 166.18 211.964 177.619 194.457 185.939C176.949 194.258 156.524 198.418 133.181 198.418ZM133.181 182.819C141.518 182.819 148.604 180.115 154.44 174.707C160.276 169.3 164.861 160.357 168.196 147.877C171.531 135.398 173.198 118.967 173.198 98.5849C173.198 77.7864 171.531 61.3556 168.196 49.2925C164.861 37.2293 160.276 28.4939 154.44 23.0863C148.604 17.6787 141.518 14.9749 133.181 14.9749C125.261 14.9749 118.175 17.6787 111.922 23.0863C106.086 28.4939 101.501 37.4373 98.1663 49.9164C95.2484 61.9796 93.7895 78.4104 93.7895 99.2089C93.7895 119.591 95.2484 136.022 98.1663 148.501C101.501 160.565 106.086 169.3 111.922 174.707C118.175 180.115 125.261 182.819 133.181 182.819ZM221.968 56.156L218.217 42.4289H220.718L290.747 0L297 4.99165V56.156H221.968Z" fill="black"/>
</svg>
