<svg
  width="491"
  height="111"
  viewBox="0 0 491 111"
  fill="none"
  xmlns="http://www.w3.org/2000/svg"
>
  <path
    d="M184.18 54.06C182.59 51.46 180.39 50.37 181.67 47.88C182.19 46.88 183.47 46.38 184.12 47.04C185.78 48.75 185.01 50.81 184.18 54.06Z"
  />
  <path
    d="M118.04 93.45C110.18 97.27 102.46 101.47 94.38 104.75C84.51 108.77 81.15 108.36 81.97 97.12C82.08 95.65 82.28 94.18 82.54 92.73C83.87 85.41 88.62 79.72 91.94 73.35C94 69.41 96.44 65.65 97.7 61.37C98.44 58.88 98.09 55.02 95.48 55.33C91.2 55.84 86.99 54.24 82.89 55.39C75.02 57.58 67.96 61.54 60.99 65.69C59.56 66.53 58.33 67.7 59.26 69.23C60.02 70.47 61.65 69.93 62.88 69.3C63.76 68.85 64.59 68.31 65.47 67.87C71.19 65 77.19 63.05 83.55 61.73C83.65 63.88 82.42 64.82 81.45 65.91C77.17 70.74 72.63 75.29 67.32 79.03C57.73 85.79 48.17 92.59 36.74 95.98C29.83 98.03 26.51 95.69 28.14 88.95C31.07 76.83 37.98 66 48.56 60.25C73.39 46.74 96.05 30.42 117.74 12.57C122.25 8.85 122.69 5.15 119.98 0H114.98C108.11 3.19 101.33 6.54 95.06 10.81C75.89 23.85 59.14 39.5 44.67 57.61C43.22 59.42 41.55 61.04 39.26 61.88C29.67 65.38 20.19 69.17 10.22 71.54C6.84 72.35 3.2 70.93 0 72.86V73.86C2.44 76.89 5.46 76.15 8.49 75.12C17.92 71.9 27.35 68.65 38.18 64.93L39.14 64.6C38.91 64.84 38.68 65.09 38.47 65.33C33.23 71.08 30.25 76.79 27.1 82.39C24.14 87.64 23.98 94 26.89 97.27C30.96 101.86 35.51 99.62 40.13 98.34C44.86 97.03 48.82 94.29 52.79 91.73C64.39 84.25 76.6 77.5 84.91 65.79C86.62 63.37 87.87 60.12 91.09 58.94C92.08 58.58 93 57.27 94.2 58.45C95.16 59.39 94.15 60.32 93.95 61.18C92.67 66.51 89.65 71.08 87.36 75.97C84.73 81.59 79.9 86.21 79.33 92.77C78.78 99.11 76.22 105.91 82.98 110.79H87.98C101.76 105.92 117.68 97.22 120.36 93.08C119.51 92.7 118.81 93.08 118.04 93.45ZM119.14 5.3C118.32 8.06 116.86 10.29 115.09 12.22C115.08 12.22 115.07 12.24 115.06 12.25C113.01 14.49 110.53 16.32 108.11 18.14C107.75 18.41 107.39 18.68 107.03 18.95C107.03 18.96 107 18.97 106.99 18.98C90.46 31.39 73.9 43.78 55.74 53.8C54.05 54.73 52.32 55.6 50.6 56.49C65.81 31.99 103.88 3.97 119.14 5.3Z"
  />
  <path
    d="M490.91 64.88C471.63 63.36 452.31 63.73 433 63.85C430.52 63.87 427.84 64.69 425.99 61.69C424.94 59.98 423.17 61.51 423.13 62.65C422.92 67.97 418.31 68.32 415.07 70.23C414.19 70.74 413.19 71.24 412.36 70.41C411.59 69.64 411.79 68.47 412.22 67.59C412.9 66.2 413.84 64.39 412.58 63.47C410.67 62.08 410.06 64.84 408.71 65.51C408.13 65.8 407.67 66.42 407.07 66.61C405.9 66.98 405.24 69.13 403.77 67.98C402.29 66.83 402.46 64.83 403.21 63.41C404.19 61.57 405.75 60.05 404.32 57.5C401.33 59.29 400.93 62.49 399.48 64.94C398.09 67.3 396.51 69.28 394 70.44C393.11 70.85 392.02 71.37 391.32 70.51C390.91 70 390.96 68.9 391.16 68.16C391.85 65.62 392.69 63.12 393.49 60.61C393.79 59.69 393.44 59 392.74 58.44C391.86 57.74 391.19 58.16 390.73 58.96C387.57 64.41 381.07 64.13 376.92 67.57C376.43 67.14 376.25 67.06 376.22 66.94C376.1 66.47 375.87 65.95 375.96 65.5C377.54 57.67 371.1 59.82 367.48 58.95C362.41 57.73 364.93 61.62 364.54 63.7C364.28 65.11 363.36 66.42 361.96 67.21C359.84 68.41 357.73 69.63 355.54 70.89C354.13 68.05 355.96 66.26 357 64.3C358.63 61.24 360.39 58.25 361.86 55.12C362.2 54.4 361.94 52.84 361.37 52.37C360.39 51.55 359.49 52.64 359.05 53.48C354.52 62.03 345 64.7 338.51 70.93C337.63 71.77 336.42 72.46 335.48 71.42C334.94 70.84 334.82 69.44 335.12 68.63C336.43 65.1 337.46 61.49 339.06 58.02C345.35 44.39 355.08 33.05 363.48 20.83C364.14 19.87 365.66 18.76 364.09 17.46C362.6 16.23 361.67 17.66 360.78 18.57C348.5 31.24 335.29 42.93 322.38 54.93C317.18 59.77 312.52 65.24 306.28 68.96C308.56 66.07 309.78 62.65 311.61 59.58C319.79 45.8 329.43 33.03 338.53 19.89C339.15 19 340.49 18.38 339.41 16.97C338.18 15.37 337.13 16.4 336.06 17.18C333.79 18.83 331.26 20.22 329.28 22.17C320.01 31.24 311.03 40.62 301.66 49.59C293.85 57.07 286.07 64.6 277.54 71.3C276.56 69.76 277.43 69.07 278.02 68.29C281.96 63.02 285.8 57.66 289.88 52.49C296.03 44.69 301.24 36.26 306.47 27.85C307.33 26.48 309.01 24.78 307.27 22.95C305.49 21.08 304.33 23.35 303 23.93C298.12 26.01 293.6 28.72 289.41 31.97C288.12 32.97 286.38 34.58 285.06 33.72C281.64 31.48 279.97 33.91 278.59 35.93C274.04 42.54 267.24 46.47 261.13 51.25C255.29 55.82 249.07 59.93 245.19 66.68C243.38 69.82 243.87 72.21 246.02 74.16C248.12 76.08 250.55 74.45 252.22 72.95C255.9 69.64 259.29 66.06 262.06 61.88C265.3 56.99 268.42 51.9 272.4 47.66C279.01 40.62 287.37 35.71 295.72 30.95C297.71 29.81 299.4 27.71 302.92 27.97C298.5 34.66 294.63 40.96 290.33 46.95C283.11 57.01 275.08 66.51 269.75 77.82C269.12 79.16 268.12 80.71 269.71 81.8C271.18 82.81 272.05 81.18 272.96 80.31C281.48 72.16 290.06 64.06 298.47 55.81C308.21 46.25 317.79 36.53 327.5 26.94C328.39 26.06 328.97 24.48 331.18 24.79C330.16 26.34 329.23 27.66 328.4 29.03C320.49 42.18 310.96 54.3 303.69 67.86C302.65 69.79 302.11 71.82 301.34 73.81C300.81 75.19 300.71 76.44 302.06 77.33C303.4 78.22 304.14 76.9 304.99 76.26C305.65 75.77 306.22 75.13 306.75 74.5C316.27 63.12 327.95 53.9 338.21 43.25C341.8 39.52 345.97 36.33 349.88 32.9C348.97 35.84 347.29 38.15 345.8 40.58C340.48 49.25 334.77 57.72 332.7 67.98C332.14 70.74 331.42 73.61 333.9 75.3C336.57 77.11 338.82 74.51 341.04 73.24C345.07 70.94 347.89 66.82 353.21 64.96C351.71 68.1 349.73 70.8 352.75 73.09C355.61 75.27 358.01 72.97 360.49 71.79C363.84 70.19 366.65 68.06 368.52 64.75C369.16 63.63 370.21 62.42 371.77 63.06C373.58 63.8 371.91 65.04 371.89 66.02C371.85 68.08 371.98 70.3 373.55 71.5C375.26 72.8 376.86 71 378.46 70.19C381.42 68.69 384.48 67.41 387.9 65.85C387.32 69.33 385.6 72.74 388.59 74.67C391.2 76.36 393.79 73.6 396.35 72.73C397.08 72.49 397.57 71.61 398.26 71.17C399.11 70.62 400.16 70.14 400.83 71.32C402.34 73.99 404.16 72.51 405.96 71.84C406.8 71.53 407.84 70.32 408.55 71.54C411.91 77.3 416.26 73.83 419.04 71.83C427.28 65.89 436.66 66.46 445.77 66.32C459.06 66.11 472.35 67.35 485.66 66.89C487.47 66.83 489.32 67.04 490.91 65.88C490.22 65.87 489.52 65.86 488.83 65.84C489.56 65.7 490.26 65.42 490.91 64.88ZM247.73 72.56C249.15 60.25 259.79 57.44 266.24 51.02C260.17 57.71 257.58 67.53 247.73 72.56Z"
  />
  <path
    d="M245.94 80.46C237.38 86.65 228.53 92.42 218.87 96.74C209.67 100.86 206.22 94.65 206.54 86.96C206.67 83.73 206.84 80.37 208.14 77.24C209.37 74.27 210.43 71.23 211.2 67.79C206.31 71.74 200.96 74.82 195.62 77.91C194.62 78.49 193.72 79.26 192.68 79.74C187.43 82.2 186.16 81.59 184.7 76.03C182.73 75.61 181.89 77.49 180.53 78.23C173.88 81.86 172.95 81.51 171.63 73.93C167.68 76.05 163.68 77.74 160.33 80.77C158.71 82.24 156.45 84.12 154.14 82.3C151.85 80.5 153.13 77.99 154.05 75.89C155.05 73.64 156.33 71.5 157.5 69.28C155.59 67.96 155.16 69.69 154.29 70.82C150.93 75.2 146.88 78.81 141.93 81.33C136.87 83.9 134.5 82.3 134.9 76.57C135 75.15 135.47 73.75 136.01 71.25C131.86 74.68 128.39 77.53 124.94 80.4C124.31 80.93 123.78 81.59 123.15 82.14C117.82 86.82 115.55 86.4 112.43 80.01C110.37 81.4 108.45 83 106.28 84.1C102.68 85.94 100.49 84.36 100.71 80.44C101.08 73.9 105.84 70.33 110.14 66.46C110.84 65.82 111.61 65.91 112.31 66.64C113.61 68 112.73 69.31 111.92 70.19C109.9 72.33 107.1 73.55 105.13 75.84C104.06 77.08 102.15 77.83 103.58 79.82C105.12 81.96 106.66 80.03 107.83 79.35C112.67 76.56 116.33 72.6 118.96 67.63C119.6 66.43 120.3 63.79 122.39 65.22C123.78 66.18 123.02 68.24 122.08 69.74C119.8 73.4 116.32 76.6 117.29 82.37C128.81 73.65 140.06 65.68 146.98 53.03C151.41 44.94 156.55 37.22 161.47 29.4C162.43 27.88 163.83 26.63 165.1 25.33C165.75 24.67 166.44 23.63 167.55 24.64C168.34 25.36 168.73 26.23 168.02 27.27C161.14 37.33 157.26 49.25 148.89 58.35C144.58 63.04 141.11 68.17 138.52 73.94C137.81 75.51 137.28 77.56 138.61 78.57C140.01 79.63 141.82 78.44 143.03 77.23C145.35 74.93 148.73 73.75 150.23 70.58C148.75 69.14 144.15 70.44 146.32 66.07C146.75 65.2 147.98 64.42 148.87 64.98C152.34 67.15 155.63 64.93 158.98 64.76C160.45 64.69 162.12 64 162.83 65.83C163.4 67.33 162.71 68.71 161.52 69.85C159.22 72.07 157.67 74.73 156.83 78.89C163.53 74.89 169.84 71.72 175.39 67.24C176.56 66.3 177.79 63.98 179.43 65.44C181.09 66.91 179.37 68.78 178.5 70.34C177.37 72.37 174.06 74.78 175.85 76.42C177.84 78.25 179.89 74.59 181.8 73.32C184.67 71.42 187.61 69.4 189.65 66.48C190.47 65.31 191.36 64.24 192.84 65.39C194.1 66.37 193.21 67.59 192.67 68.47C191.15 70.95 187.79 74.45 189.5 76.04C191.79 78.15 194.85 74.44 197.51 73.11C207.81 67.97 215.24 60.15 220.07 49.67C223.99 41.15 228.37 32.84 232.57 24.44C233.46 22.67 234.29 20.83 235.47 19.27C236.33 18.12 237.12 15.77 239.2 17.17C240.97 18.36 239.42 19.94 238.75 21.09C230.06 35.94 223.36 51.79 215.6 67.11C212.38 73.45 209.24 80.16 209.79 87.82C210.25 94.37 212.67 95.9 218.67 93.34C227.33 89.63 235.13 84.39 243.34 79.87C244.34 79.32 245.2 78.52 246.45 78.84C247.02 79.63 246.42 80.11 245.94 80.46Z"
  />
  <path
    d="M184.18 54.06C182.59 51.46 180.39 50.37 181.67 47.88C182.19 46.88 183.47 46.38 184.12 47.04C185.78 48.75 185.01 50.81 184.18 54.06Z"
  />
</svg>
